<?xml version="1.0" standalone="no"?>
<!DOCTYPE svg PUBLIC "-//W3C//DTD SVG 20010904//EN"
 "http://www.w3.org/TR/2001/REC-SVG-20010904/DTD/svg10.dtd">
<svg version="1.0" xmlns="http://www.w3.org/2000/svg"
 width="700.000000pt" height="700.000000pt" viewBox="0 0 700.000000 700.000000"
 preserveAspectRatio="xMidYMid meet">
<metadata>
Created by potrace 1.14, written by Peter Selinger 2001-2017
</metadata>
<g transform="translate(0.000000,700.000000) scale(0.100000,-0.100000)"
fill="#000000" stroke="none">
<path d="M3403 6988 c-13 -6 -23 -15 -23 -20 0 -4 -7 -8 -15 -8 -9 0 -21 -11
-27 -25 -6 -14 -14 -25 -18 -25 -19 0 -22 -90 -24 -698 -1 -640 -1 -654 -21
-665 -11 -6 -40 -11 -65 -12 -25 0 -50 -4 -56 -7 -6 -4 -21 -6 -32 -3 -12 2
-24 0 -27 -6 -4 -5 -22 -9 -41 -9 -19 0 -34 -4 -34 -9 0 -6 -10 -8 -21 -6 -12
3 -27 1 -33 -3 -6 -4 -13 -7 -16 -8 -3 0 -12 -3 -20 -7 -28 -10 -75 -20 -87
-18 -7 1 -13 -3 -13 -9 0 -5 -8 -10 -18 -10 -10 0 -26 -6 -37 -14 -11 -7 -23
-14 -28 -15 -29 -4 -57 -15 -57 -23 0 -5 -4 -7 -9 -3 -5 3 -13 0 -16 -6 -4 -5
-13 -8 -20 -5 -8 3 -15 2 -17 -2 -2 -4 -28 -19 -58 -35 -68 -34 -93 -49 -102
-62 -4 -5 -8 -7 -8 -3 0 7 -59 -29 -87 -52 -7 -5 -15 -10 -18 -10 -10 0 -69
-44 -78 -57 -4 -7 -13 -13 -20 -13 -7 0 -25 -14 -41 -30 -16 -17 -30 -29 -32
-27 -5 5 -265 -256 -277 -279 -6 -11 -19 -26 -29 -35 -10 -9 -18 -21 -18 -26
0 -6 -7 -17 -16 -24 -18 -15 -115 -158 -117 -174 -1 -5 -11 -23 -23 -40 -22
-32 -61 -111 -90 -182 -10 -24 -21 -43 -25 -43 -4 0 -5 -9 -2 -20 3 -11 1 -20
-5 -20 -11 0 -27 -45 -34 -97 -1 -7 -5 -13 -10 -13 -4 0 -8 -13 -8 -30 0 -16
-3 -30 -7 -30 -7 0 -11 -18 -16 -72 -1 -10 -5 -18 -9 -18 -4 0 -8 -15 -8 -33
0 -19 -3 -37 -7 -41 -4 -4 -8 -19 -9 -34 -1 -15 -3 -27 -4 -27 -13 0 -29 -574
-16 -578 4 -2 10 -25 12 -52 5 -82 10 -114 17 -121 4 -4 7 -22 7 -40 0 -18 4
-35 9 -38 5 -4 8 -14 6 -24 -1 -9 2 -22 7 -29 5 -7 7 -17 3 -23 -3 -5 -1 -10
4 -10 6 0 11 -13 11 -30 0 -16 5 -30 11 -30 6 0 8 -9 4 -20 -3 -11 -2 -20 3
-20 7 0 27 -48 37 -90 1 -3 11 -25 22 -50 12 -25 24 -55 28 -67 3 -13 10 -23
15 -23 5 0 7 -7 4 -15 -4 -8 -1 -15 5 -15 6 0 11 -6 11 -14 0 -7 9 -25 20 -38
10 -14 17 -28 13 -31 -3 -4 2 -9 11 -13 9 -3 16 -11 16 -16 0 -5 9 -22 20 -38
11 -15 17 -30 13 -33 -3 -4 2 -9 11 -13 9 -3 16 -12 16 -19 0 -7 4 -15 9 -17
5 -1 11 -9 13 -17 3 -13 21 -36 74 -96 12 -13 24 -28 25 -33 7 -17 79 -92 89
-92 5 0 10 -4 10 -8 0 -12 129 -140 135 -134 3 3 5 -1 5 -10 0 -8 8 -19 19
-24 18 -9 77 -54 111 -84 20 -18 49 -38 70 -47 8 -4 17 -9 20 -12 12 -14 113
-71 126 -71 8 0 14 -6 14 -14 0 -8 13 -17 30 -21 16 -4 30 -11 30 -16 0 -5 3
-9 8 -8 15 2 52 -14 52 -23 0 -5 4 -7 9 -4 4 3 28 -4 52 -16 24 -12 49 -23 54
-24 6 -1 33 -11 61 -22 29 -12 55 -18 58 -15 3 4 6 1 6 -5 0 -7 13 -12 28 -12
16 0 32 -3 36 -7 3 -4 12 -8 19 -9 7 -1 22 -4 34 -6 12 -2 26 -7 29 -11 4 -4
22 -7 39 -7 17 0 35 -3 39 -7 7 -7 41 -12 116 -17 25 -2 55 -8 65 -14 20 -10
20 -24 20 -671 0 -364 3 -661 7 -661 5 0 8 -7 8 -15 0 -8 5 -15 10 -15 6 0 15
-11 20 -25 5 -14 16 -25 24 -25 8 0 19 -8 25 -17 8 -15 25 -18 111 -18 86 0
103 3 111 17 6 10 17 18 25 18 8 0 20 11 26 25 6 14 14 25 18 25 17 0 23 53
25 220 1 96 3 181 4 188 1 10 11 8 39 -9 20 -12 53 -31 72 -41 19 -10 49 -27
65 -38 47 -30 84 -51 91 -49 4 0 10 -5 14 -12 10 -16 143 -17 162 -1 8 6 18 9
21 5 4 -3 7 -1 7 5 0 7 6 12 13 12 7 0 26 13 42 30 16 16 25 30 20 30 -5 0 0
6 10 14 10 7 16 20 12 28 -3 9 -1 20 4 25 4 4 9 22 10 38 3 37 -22 126 -33
119 -4 -3 -8 2 -8 12 0 16 -34 54 -55 63 -37 14 -55 25 -55 33 0 5 -4 6 -10 3
-5 -3 -10 -2 -10 4 0 5 -13 12 -30 16 -16 4 -33 12 -37 20 -5 7 -29 22 -55 34
-27 12 -48 26 -48 31 0 6 -3 10 -7 9 -16 -2 -53 14 -53 23 0 5 -4 7 -9 3 -6
-3 -13 0 -18 8 -4 7 -19 18 -33 25 -14 7 -48 25 -75 40 l-50 27 1 970 c1 534
2 978 3 989 1 12 228 -209 699 -680 384 -385 701 -707 705 -716 3 -10 3 -18
-2 -18 -5 0 -12 -17 -16 -37 -5 -21 -10 -42 -12 -48 -1 -5 -8 -35 -15 -65 -7
-30 -16 -58 -22 -61 -5 -4 -6 -14 -3 -23 4 -9 3 -16 -2 -16 -5 0 -12 -25 -16
-55 -3 -30 -11 -55 -16 -55 -5 0 -7 -11 -5 -25 3 -14 1 -25 -3 -25 -9 0 -22
-48 -25 -85 -1 -11 -4 -24 -7 -30 -4 -5 -4 -19 -2 -30 2 -11 6 -33 7 -49 2
-29 93 -143 104 -132 3 3 12 0 20 -6 25 -21 132 -18 176 4 46 24 84 63 92 95
4 13 9 23 13 23 4 0 8 6 9 13 0 6 6 32 12 57 7 25 13 50 14 55 2 6 6 18 10 27
4 9 5 21 2 27 -3 5 -2 11 4 13 5 1 11 12 13 23 1 11 5 25 8 30 4 6 5 20 4 32
-1 13 1 23 3 23 3 0 52 -47 109 -104 57 -58 103 -103 103 -101 0 3 15 -6 34
-19 30 -20 46 -23 109 -21 63 2 82 6 120 31 25 15 44 31 41 35 -2 4 3 12 11
19 8 7 15 19 15 26 0 8 4 14 8 14 4 0 8 36 8 80 -1 44 -3 80 -6 80 -3 0 -11
13 -18 29 -7 16 -60 76 -119 135 -58 58 -104 106 -102 107 33 7 59 11 82 12
15 1 27 5 27 10 0 4 9 7 19 7 11 0 22 4 26 9 3 6 13 10 23 10 29 -1 102 21
142 41 80 41 118 103 116 190 -1 30 -7 65 -14 77 -6 12 -12 26 -12 32 0 14
-72 80 -87 81 -7 0 -13 4 -13 9 0 4 -14 7 -32 5 -17 -2 -37 1 -44 7 -7 6 -19
7 -26 2 -7 -4 -22 -9 -33 -10 -47 -5 -64 -10 -77 -19 -7 -6 -23 -9 -35 -8 -13
0 -23 -3 -23 -7 0 -5 -3 -8 -7 -7 -9 2 -80 -11 -103 -18 -8 -3 -15 -4 -16 -2
0 2 -8 -3 -18 -11 -9 -8 -19 -11 -22 -8 -3 3 -20 0 -37 -8 -18 -7 -38 -10 -44
-8 -7 3 -13 0 -13 -6 0 -7 -11 -9 -25 -7 -14 3 -25 1 -25 -3 0 -4 -17 -11 -38
-17 l-38 -10 -703 702 c-386 386 -698 704 -694 706 4 2 449 4 988 4 l979 -1
28 -50 c48 -88 61 -110 67 -115 3 -3 17 -26 30 -52 13 -27 28 -48 33 -48 5 0
7 -4 3 -9 -3 -5 -1 -12 5 -16 6 -4 8 -11 5 -16 -4 -5 -1 -9 4 -9 6 0 11 -7 11
-15 0 -9 6 -18 14 -21 8 -3 18 -19 21 -35 4 -16 11 -29 16 -29 6 0 7 -5 4 -10
-3 -6 0 -13 8 -16 12 -4 24 -28 27 -51 1 -8 41 -43 66 -57 66 -37 88 -41 165
-32 30 3 99 43 99 57 0 6 4 8 9 5 10 -6 35 43 32 63 -1 8 2 10 10 6 9 -6 10
-1 7 18 -3 16 0 31 8 38 9 8 10 18 3 35 -5 14 -9 36 -9 50 0 13 -5 24 -12 24
-6 0 -8 3 -5 7 4 3 -5 21 -19 40 -14 18 -21 33 -17 33 4 0 3 4 -2 8 -6 4 -16
18 -23 32 -7 14 -23 43 -37 65 -14 22 -28 47 -32 55 -4 8 -11 18 -17 22 -26
17 18 23 187 24 176 1 214 5 229 28 4 6 13 11 19 11 7 0 17 9 23 20 6 11 13
22 16 25 36 36 41 200 7 234 -9 10 -22 26 -28 37 -5 11 -14 17 -20 14 -5 -4
-12 0 -15 8 -9 25 -42 29 -233 31 -138 1 -185 4 -189 14 -2 6 1 12 7 12 6 0
11 6 11 14 0 7 7 19 15 26 8 7 12 16 9 21 -3 5 0 9 5 9 6 0 11 6 11 13 0 7 14
32 31 55 17 23 28 42 24 42 -3 0 5 15 19 33 14 19 23 37 19 40 -3 4 -1 7 6 7
9 0 12 9 9 25 -3 14 -1 25 3 25 5 0 9 16 9 35 0 19 -3 35 -8 35 -4 0 -8 14 -9
32 0 18 -6 34 -12 36 -6 2 -11 10 -11 17 0 7 -15 25 -32 39 -18 15 -38 31 -45
36 -7 6 -21 10 -31 10 -10 0 -22 3 -26 7 -14 14 -62 9 -113 -13 -29 -13 -53
-21 -53 -19 0 2 -13 -8 -29 -23 -15 -15 -27 -29 -25 -32 1 -3 -11 -25 -27 -48
-16 -24 -27 -47 -24 -53 4 -5 2 -9 -3 -9 -5 0 -17 -16 -28 -35 -10 -19 -23
-35 -28 -35 -5 0 -6 -3 -3 -7 4 -3 2 -12 -4 -20 -6 -7 -8 -13 -4 -13 5 0 -2
-9 -14 -19 -13 -11 -20 -24 -17 -29 3 -5 -3 -17 -14 -27 -11 -10 -17 -21 -15
-26 3 -4 1 -10 -4 -13 -5 -3 -30 -41 -55 -84 l-45 -77 -983 1 c-541 1 -985 2
-987 3 -2 0 312 317 698 702 l701 701 37 -8 c21 -4 41 -8 45 -8 3 -1 9 -4 13
-8 4 -4 13 -4 21 -1 8 3 14 0 14 -6 0 -6 12 -10 27 -9 14 2 28 -2 30 -8 2 -6
15 -9 28 -6 15 2 25 0 25 -7 0 -7 4 -10 10 -6 5 3 17 1 27 -4 23 -12 82 -27
140 -34 12 -1 25 -6 29 -10 4 -4 16 -7 26 -7 10 0 18 -4 18 -9 0 -5 12 -8 26
-5 14 3 32 0 40 -7 11 -9 21 -9 42 0 16 7 33 11 38 10 27 -6 124 71 124 98 0
7 4 13 10 13 5 0 9 3 9 8 -1 4 0 9 1 12 7 13 7 140 0 140 -4 0 -11 11 -14 25
-7 29 -62 83 -93 91 -13 4 -23 10 -23 16 0 5 -6 8 -12 7 -14 -2 -68 10 -83 20
-5 3 -17 6 -25 6 -14 1 -85 20 -120 33 -8 3 -23 6 -32 7 -10 2 -21 3 -24 4 -4
0 41 48 99 106 59 58 107 109 108 113 1 4 9 18 17 31 11 15 16 50 17 100 2 65
-1 81 -21 107 -13 17 -20 34 -17 37 3 4 -6 11 -21 16 -14 6 -26 15 -26 21 0 5
-9 10 -20 10 -11 0 -20 3 -20 8 0 4 -36 7 -80 8 -44 0 -80 -3 -80 -7 0 -4 -11
-10 -25 -13 -15 -4 -23 -11 -19 -18 4 -6 1 -9 -6 -6 -7 2 -58 -42 -114 -99
-56 -57 -105 -103 -107 -103 -3 0 -5 10 -4 23 1 12 -2 28 -8 35 -5 6 -7 12 -4
12 4 0 -1 19 -10 43 -8 23 -16 52 -17 64 -1 12 -5 25 -9 29 -4 4 -7 18 -7 31
0 12 -4 23 -9 23 -5 0 -7 9 -4 20 3 11 1 20 -5 20 -5 0 -13 11 -16 25 -9 37
-84 104 -108 97 -5 -1 -8 2 -8 7 0 13 -119 7 -155 -8 -59 -24 -118 -96 -120
-146 0 -11 -3 -24 -6 -30 -5 -9 -5 -32 1 -37 1 -2 3 -16 5 -33 1 -16 8 -43 15
-60 7 -16 12 -36 11 -43 -1 -8 2 -19 7 -25 5 -7 13 -36 17 -64 4 -29 11 -53
15 -53 5 0 7 -9 5 -20 -2 -11 1 -20 7 -20 6 0 8 -9 5 -20 -3 -10 1 -27 8 -36
7 -10 10 -26 7 -36 -2 -10 1 -18 7 -18 7 0 10 -10 7 -25 -3 -14 -1 -25 3 -25
4 0 11 -17 17 -38 l10 -38 -702 -703 c-386 -386 -704 -698 -706 -694 -3 4 -4
449 -4 987 l1 979 45 24 c24 13 47 28 51 34 3 6 8 10 10 9 8 -3 59 23 59 31 0
4 11 10 25 13 14 4 25 11 25 16 0 5 7 7 15 4 8 -4 15 -1 15 5 0 11 47 36 63
33 4 -1 7 3 7 8 0 6 7 10 15 10 8 0 15 4 15 8 0 8 71 46 79 42 2 -1 7 2 10 7
3 5 24 20 46 32 41 22 101 102 91 120 -3 5 0 13 7 19 16 14 7 126 -12 142 -3
3 -17 22 -31 42 -14 21 -33 38 -42 38 -10 0 -18 5 -18 12 0 6 -3 8 -7 5 -3 -4
-12 -2 -20 4 -21 18 -145 17 -163 -1 -3 -3 -21 -13 -40 -23 -19 -9 -48 -26
-65 -37 -16 -11 -42 -26 -57 -32 -16 -7 -28 -16 -28 -21 0 -4 -4 -6 -9 -3 -5
3 -14 -1 -21 -9 -7 -8 -19 -15 -26 -15 -8 0 -14 -5 -14 -11 0 -6 -6 -9 -12 -7
-10 4 -13 51 -14 189 -2 179 -7 229 -25 229 -5 0 -9 5 -9 11 0 14 -17 30 -61
57 -29 18 -51 22 -110 21 -41 0 -84 -5 -96 -11z m-115 -1883 c4 -4 7 -729 7
-1611 0 -1420 -2 -1604 -15 -1605 -29 -3 -55 0 -105 11 -27 6 -58 12 -67 13
-10 1 -18 4 -18 8 0 6 -31 13 -87 21 -7 1 -13 5 -13 10 0 4 -3 7 -7 6 -10 -3
-81 21 -113 38 -22 11 -56 25 -70 29 -3 0 -21 9 -40 20 -19 11 -38 18 -42 17
-5 -1 -8 3 -8 8 0 6 -18 17 -40 26 -22 9 -40 20 -40 25 0 5 -7 9 -15 9 -8 0
-15 4 -15 9 0 5 -8 12 -19 16 -10 3 -30 16 -44 28 -14 12 -40 33 -58 47 -39
30 -214 205 -247 246 -13 16 -40 54 -62 84 -21 30 -46 63 -55 73 -8 9 -12 17
-9 17 3 0 -4 13 -15 29 -12 16 -21 34 -21 39 0 6 -3 12 -8 14 -6 2 -38 70 -82
173 -13 31 -24 69 -22 78 1 4 -2 7 -7 7 -9 0 -26 66 -22 88 1 6 -2 12 -7 12
-4 0 -9 10 -9 23 -1 12 -7 40 -13 62 -7 22 -12 56 -11 75 0 19 -4 39 -8 45
-11 13 -11 397 0 411 5 6 7 27 6 48 -2 20 0 39 5 42 4 3 8 18 8 35 0 16 4 29
9 29 5 0 8 8 6 18 -1 9 2 23 8 30 5 7 7 15 4 19 -3 3 0 20 8 38 7 19 11 36 7
39 -3 3 0 6 6 6 7 0 11 3 10 8 -3 10 23 85 34 99 5 7 7 16 4 21 -3 5 2 20 12
33 10 13 27 45 38 71 10 27 22 48 27 48 7 0 22 31 27 55 1 6 8 14 16 18 8 4
14 12 14 18 0 5 5 15 10 22 20 23 65 85 80 108 24 39 281 289 296 289 5 0 28
17 81 60 7 6 16 10 21 10 4 0 18 9 31 21 12 12 25 18 28 15 3 -3 13 3 23 14 9
10 28 22 43 25 15 4 30 11 33 16 5 9 70 41 86 43 3 1 10 4 14 9 4 4 13 7 20 7
7 0 25 5 41 12 15 6 30 12 33 13 53 16 98 28 108 28 6 0 12 3 12 7 0 3 10 7
23 8 46 4 97 14 102 21 5 9 64 6 73 -4z"/>
<path d="M2216 6762 c-4 -3 -14 -7 -22 -8 -40 -6 -127 -92 -130 -128 0 -6 -4
-19 -9 -28 -6 -15 -5 -38 7 -115 1 -7 5 -13 10 -13 5 0 7 -3 5 -8 -3 -4 3 -25
14 -46 10 -21 17 -42 14 -46 -2 -4 4 -16 13 -26 17 -18 20 -24 23 -41 6 -37
21 -73 31 -73 5 0 7 -4 3 -10 -3 -5 -1 -17 4 -27 6 -10 22 -47 36 -83 14 -36
30 -74 34 -85 22 -50 36 -91 33 -97 -1 -5 3 -8 9 -8 6 0 9 -7 5 -15 -3 -8 -1
-15 4 -15 6 0 10 -9 10 -19 0 -11 16 -36 35 -57 19 -20 35 -41 35 -45 0 -5 6
-6 14 -3 7 3 21 -2 30 -11 9 -9 24 -15 33 -14 10 2 28 -2 41 -9 14 -8 22 -9
22 -2 0 5 18 10 40 10 22 0 40 5 40 10 0 6 5 10 11 10 14 0 85 71 82 82 -2 4
1 8 6 8 23 0 30 128 10 175 -7 17 -13 35 -14 40 -1 6 -9 24 -18 41 -9 17 -13
34 -10 38 4 3 1 6 -6 6 -7 0 -10 4 -6 9 3 5 1 12 -5 16 -5 3 -10 15 -10 26 0
10 -5 19 -10 19 -6 0 -9 3 -8 8 1 8 -7 32 -25 72 -6 14 -12 32 -12 41 -1 8
-10 27 -20 42 -9 15 -14 27 -11 27 4 0 -1 11 -10 25 -8 13 -13 28 -10 33 3 6
-1 15 -9 22 -8 7 -12 16 -9 21 3 5 0 9 -6 9 -6 0 -8 5 -5 10 3 6 1 10 -4 10
-6 0 -11 7 -11 17 0 23 -49 124 -73 150 -11 12 -24 20 -28 17 -5 -3 -9 0 -9 5
0 6 -7 11 -15 11 -8 0 -15 5 -15 11 0 5 -4 8 -9 4 -5 -3 -12 -1 -15 4 -7 10
-100 13 -110 3z"/>
<path d="M1112 6034 c-39 -12 -118 -72 -126 -94 -20 -53 -31 -98 -29 -115 8
-55 16 -85 24 -85 5 0 8 -3 7 -7 -5 -19 37 -66 264 -293 263 -263 297 -288
388 -285 43 1 98 20 111 39 4 5 11 6 16 3 10 -6 64 72 71 101 2 10 5 37 7 62
7 85 -21 123 -285 387 -232 233 -298 290 -326 279 -7 -3 -14 0 -16 6 -5 15
-66 16 -106 2z"/>
<path d="M407 4958 c-7 -4 -22 -8 -34 -8 -13 0 -23 -5 -23 -10 0 -6 -8 -14
-17 -17 -51 -20 -86 -89 -87 -171 -1 -35 2 -66 5 -68 4 -2 10 -16 13 -30 6
-21 68 -96 79 -93 2 0 52 -17 77 -28 8 -3 18 -5 23 -5 4 1 7 -2 7 -7 0 -10 38
-24 58 -22 6 1 12 -3 12 -9 0 -5 3 -9 8 -8 9 2 34 -8 87 -32 22 -10 59 -24 83
-31 23 -7 42 -16 42 -21 0 -4 9 -8 20 -8 11 0 20 -4 20 -9 0 -6 9 -8 20 -6 11
2 20 0 20 -6 0 -5 7 -9 15 -9 8 0 15 -4 15 -9 0 -5 9 -7 20 -4 11 3 20 0 20
-6 0 -6 7 -11 15 -11 8 0 15 -4 15 -10 0 -5 7 -7 15 -4 8 4 25 0 38 -9 30 -19
140 -16 188 6 45 20 68 47 99 117 13 29 15 114 3 133 -7 11 -9 16 -12 35 -2
19 -78 90 -101 96 -14 4 -38 13 -55 21 -29 13 -81 35 -158 69 -21 9 -44 16
-52 16 -7 0 -21 7 -30 16 -8 9 -22 13 -30 10 -8 -3 -15 -1 -15 4 0 6 -7 10
-15 10 -8 0 -15 5 -15 11 0 5 -4 7 -10 4 -5 -3 -29 4 -52 17 -24 12 -47 22
-53 23 -5 1 -26 8 -45 15 -19 8 -38 13 -42 12 -5 -1 -8 2 -8 7 0 5 -15 13 -32
16 -18 4 -37 10 -43 13 -14 9 -74 9 -88 0z"/>
<path d="M120 3696 c-6 -6 -10 -6 -10 -2 0 5 -9 -2 -20 -15 -10 -13 -19 -20
-20 -16 0 12 -25 -15 -33 -35 -3 -10 -11 -18 -17 -18 -6 0 -9 -4 -5 -9 3 -5 1
-12 -5 -16 -5 -3 -10 -40 -10 -81 0 -89 21 -133 84 -179 l41 -29 405 -1 c424
-1 423 -1 468 42 7 7 18 13 24 13 6 0 9 3 5 6 -3 4 5 21 18 39 14 17 25 43 25
56 0 13 0 35 0 49 0 14 0 37 0 53 0 15 -4 27 -10 27 -5 0 -10 5 -10 11 0 12
-46 82 -51 78 -2 -2 -17 6 -33 17 -28 18 -52 19 -433 19 -245 0 -408 -4 -413
-9z"/>
<path d="M1011 2718 c-24 -4 -50 -13 -59 -20 -8 -7 -18 -13 -21 -12 -3 1 -19
-4 -36 -10 -16 -5 -33 -9 -37 -8 -5 1 -8 -2 -8 -8 0 -5 -16 -12 -35 -16 -19
-3 -35 -10 -35 -15 0 -5 -3 -8 -7 -7 -9 1 -34 -7 -73 -25 -14 -6 -29 -12 -35
-12 -5 -1 -23 -8 -40 -17 -16 -8 -36 -13 -42 -11 -7 3 -13 0 -13 -5 0 -8 -34
-26 -72 -37 -5 -1 -10 -4 -13 -5 -3 -1 -8 -3 -12 -4 -5 -1 -18 -7 -30 -14 -13
-7 -23 -10 -23 -7 0 3 -10 -1 -22 -9 -12 -9 -30 -16 -39 -16 -21 0 -99 -73
-99 -93 0 -10 -5 -17 -10 -17 -6 0 -9 -3 -9 -7 1 -5 0 -10 -1 -13 -8 -18 -7
-106 1 -117 6 -7 9 -18 7 -25 -7 -19 75 -108 100 -108 7 0 11 -4 7 -9 -3 -6 3
-10 12 -10 10 -1 37 -4 61 -7 23 -3 50 -3 60 1 20 9 29 12 61 19 13 3 31 12
40 19 9 8 24 13 34 12 9 -2 17 0 17 5 0 8 48 25 63 22 4 -1 17 7 29 18 11 10
25 17 29 14 5 -3 21 2 36 10 50 27 113 53 137 55 8 0 22 8 30 17 9 8 16 13 16
10 0 -3 20 3 45 14 25 11 47 19 50 19 3 1 19 8 35 16 16 8 32 15 35 15 15 -2
85 57 85 72 0 9 7 23 15 32 21 20 23 176 3 176 -5 0 -7 4 -4 8 6 10 -67 82
-82 82 -6 0 -12 4 -14 10 -5 15 -89 27 -137 18z"/>
<path d="M1545 1825 c-38 -17 -107 -79 -288 -260 -255 -255 -267 -269 -288
-330 -17 -52 -17 -82 -1 -125 7 -19 15 -43 18 -52 4 -10 15 -20 26 -24 11 -3
17 -8 14 -11 -10 -10 49 -48 94 -60 45 -12 140 2 140 20 0 6 3 7 7 4 3 -4 20
4 37 17 35 26 509 498 509 506 -1 3 7 23 17 45 21 48 20 116 -4 170 -19 44
-55 87 -66 80 -5 -3 -10 2 -14 10 -3 8 -14 15 -24 15 -10 0 -22 3 -26 7 -17
17 -103 11 -151 -12z"/>
<path d="M2435 1263 c-70 -18 -139 -102 -162 -200 -3 -13 -9 -23 -14 -23 -5 0
-6 -7 -3 -15 4 -8 1 -15 -5 -15 -6 0 -11 -6 -11 -14 0 -7 -12 -40 -26 -72 -40
-92 -42 -98 -49 -121 -4 -13 -10 -23 -15 -23 -4 0 -7 -8 -6 -17 2 -10 -3 -27
-10 -38 -8 -11 -14 -27 -14 -37 0 -10 -5 -18 -10 -18 -6 0 -9 -3 -8 -7 1 -5
-4 -21 -10 -36 -7 -16 -12 -35 -12 -43 0 -9 -5 -12 -12 -8 -8 5 -9 2 -5 -9 3
-10 2 -17 -3 -17 -6 0 -10 -9 -10 -19 0 -11 -3 -22 -8 -25 -9 -6 -9 -93 1
-102 4 -4 7 -13 7 -21 0 -27 51 -90 93 -114 49 -27 144 -33 189 -12 15 8 31
14 35 16 26 7 79 78 75 100 -1 4 3 7 8 7 6 0 10 7 10 16 0 9 7 28 15 42 12 22
31 64 40 92 3 9 16 45 24 65 5 11 9 23 9 28 1 4 9 22 19 40 9 17 16 40 14 51
-2 11 2 16 8 12 6 -4 11 1 11 11 0 10 8 30 17 43 10 14 17 27 17 30 -2 14 9
40 18 40 5 0 7 4 4 9 -3 5 3 28 13 52 10 24 22 53 26 64 5 11 9 50 10 88 2 59
-1 73 -26 112 -16 25 -40 50 -54 55 -14 5 -25 15 -25 21 0 6 -9 9 -20 6 -11
-3 -20 -1 -20 4 0 9 -90 11 -125 2z"/>
</g>
</svg>
